<?xml version="1.0" encoding="utf-8"?>
<!-- Generator: Adobe Illustrator 16.0.0, SVG Export Plug-In . SVG Version: 6.00 Build 0)  -->
<!DOCTYPE svg PUBLIC "-//W3C//DTD SVG 1.1//EN" "http://www.w3.org/Graphics/SVG/1.1/DTD/svg11.dtd">
<svg version="1.1" id="Layer_1" xmlns="http://www.w3.org/2000/svg" xmlns:xlink="http://www.w3.org/1999/xlink" x="0px" y="0px"
	 width="46.021px" height="50px" viewBox="0 0 46.021 50" style="enable-background:new 0 0 46.021 50;" xml:space="preserve">
<style type="text/css">
<![CDATA[
	.st0{fill:#F7D050;}
]]>
</style>
<g>
	<path class="st0" d="M8.127,37.095H6.578c-0.285,0-0.518,0.233-0.518,0.518v1.554c0,0.285,0.233,0.518,0.518,0.518h1.549
		c0.285,0,0.518-0.232,0.518-0.518v-1.554C8.646,37.328,8.413,37.095,8.127,37.095z"/>
	<path class="st0" d="M45.964,47.941l-3.106-6.028c-0.089-0.172-0.267-0.281-0.461-0.281h-0.91v-5.447
		c0-0.286-0.233-0.518-0.519-0.518h-0.165V24.315c0-0.024-0.022-0.039-0.027-0.061c0.428-0.421,0.711-1.02,0.711-1.709v-5.532
		c0-1.262-0.902-2.288-2.011-2.288H36.62c-0.587,0-1.103,0.297-1.47,0.754c-0.009-0.002-0.015-0.01-0.023-0.01h-1.222v-1.655v-2.92
		C33.905,4.887,29.018,0,23.011,0c-6.008,0-10.895,4.887-10.895,10.895v2.92v1.655h-1.222c-0.008,0-0.014,0.008-0.022,0.01
		c-0.369-0.457-0.884-0.754-1.471-0.754H6.545c-1.108,0-2.01,1.025-2.01,2.288v5.532c0,0.689,0.283,1.288,0.709,1.709
		c-0.003,0.022-0.026,0.036-0.026,0.061v11.352H5.053c-0.285,0-0.518,0.232-0.518,0.518v5.447h-0.91
		c-0.194,0-0.373,0.109-0.461,0.281l-3.107,6.028c-0.035,0.066-0.042,0.139-0.046,0.212c0,0.01-0.01,0.015-0.01,0.024v1.305
		C0,49.768,0.232,50,0.518,50h12.117c0.285,0,0.518-0.232,0.518-0.518v-1.305c0-0.03-0.026-0.049-0.032-0.077
		c-0.005-0.024,0.019-0.044,0.012-0.066l-1.719-5.957v-5.892c0-0.286-0.233-0.518-0.518-0.518h-0.166v-0.85v-8.949v-1.553
		c0-0.024-0.022-0.039-0.027-0.061c0.427-0.421,0.71-1.02,0.71-1.709v-0.01h0.704v15.078c0,0.285,0.233,0.518,0.518,0.518h1.074
		l1.43,2.827c0.087,0.174,0.266,0.283,0.461,0.283h0.931v0.909c0,0.285,0.232,0.519,0.518,0.519h0.885l-1.386,5.38
		c-0.007,0.02,0.017,0.038,0.012,0.062c-0.004,0.025-0.028,0.042-0.028,0.068v1.305c0,0.285,0.232,0.518,0.518,0.518h11.931
		c0.285,0,0.518-0.232,0.518-0.518V48.24c0.005-0.022,0.026-0.039,0.026-0.063c0-0.102-0.028-0.194-0.078-0.273l-1.298-5.236h0.832
		c0.285,0,0.518-0.233,0.518-0.519V41.24h1.032c0.205,0,0.39-0.122,0.473-0.311l1.231-2.799h1.155c0.285,0,0.518-0.232,0.518-0.518
		V27.096v-4.561h0.704v0.01c0,0.689,0.283,1.288,0.71,1.709c-0.004,0.022-0.026,0.036-0.026,0.061v1.553v8.949v0.85h-0.166
		c-0.285,0-0.518,0.232-0.518,0.518v5.892l-1.719,5.957c-0.007,0.022,0.017,0.042,0.012,0.066c-0.006,0.028-0.032,0.047-0.032,0.077
		v1.305c0,0.285,0.232,0.518,0.518,0.518h12.116c0.286,0,0.518-0.232,0.518-0.518v-1.305c0-0.01-0.009-0.015-0.009-0.024
		C46.007,48.08,46,48.008,45.964,47.941z M5.571,17.013c0-0.68,0.447-1.252,0.975-1.252h2.856c0.528,0,0.976,0.572,0.976,1.252
		v5.004v0.528c0,0.679-0.447,1.252-0.976,1.252H6.545c-0.527,0-0.975-0.573-0.975-1.252V17.013z M8.965,25.351
		c-0.286,0-0.518,0.232-0.518,0.518v8.949c0,0.285,0.232,0.518,0.518,0.518h0.728v0.332H6.254V24.833h0.291h2.856h0.292v0.518H8.965
		z M9.693,26.387V34.3h-0.21v-7.913H9.693z M5.571,36.703h0.166h4.474h0.167v4.929H5.571V36.703z M12.116,48.965H1.036v-0.27h4.017
		h2.921h4.143V48.965z M5.571,47.66v-3.439h1.885v3.439H5.571z M11.946,47.66H8.492v-3.957c0-0.285-0.233-0.518-0.518-0.518H5.053
		c-0.285,0-0.518,0.232-0.518,0.518v3.957H1.368l2.573-4.992h1.112h5.451L11.946,47.66z M12.116,21.5h-0.704v-4.486v-0.508h0.704
		V21.5z M16.53,40.204h-0.612l-1.051-2.074h1.663V40.204z M28.46,48.965H17.565v-0.27H28.46V48.965z M28.316,47.66H17.715
		l1.286-4.992h8.079L28.316,47.66z M28.46,41.632h-0.976h-8.884h-1.036V41.24H28.46V41.632z M17.565,40.204V38.13h0.453v2.074
		H17.565z M19.055,40.204V38.13h2.689v2.074H19.055z M22.78,40.204V38.13h0.457v2.074H22.78z M24.273,40.204V38.13h2.715v2.074
		H24.273z M28.48,40.204h-0.457V38.13h0.457V40.204z M16.117,37.095V15.761h13.877v1.916h-0.996c-0.285,0-0.518,0.232-0.518,0.518
		v8.902c0,0.286,0.232,0.518,0.518,0.518h0.996v9.48H16.117z M29.994,18.712v7.866h-0.479v-7.866H29.994z M30.19,40.204h-0.675
		V38.13h1.587L30.19,40.204z M32.87,37.095h-0.976h-0.865v-9.48h1.841V37.095z M32.87,22.017v4.562h-1.841v-7.866h1.841V22.017z
		 M32.87,15.987v1.689h-1.841v-2.434c0-0.285-0.232-0.518-0.518-0.518H15.599c-0.285,0-0.518,0.232-0.518,0.518v21.852h-1.056
		h-0.874V22.017v-6.03v-1.654H32.87V15.987z M32.87,13.297H13.152v-0.581H32.87V13.297z M32.87,11.681H13.152v-0.787
		c0-5.438,4.422-9.859,9.859-9.859c5.437,0,9.858,4.421,9.858,9.859V11.681z M34.609,17.013V21.5h-0.704v-3.305v-1.689h0.704V17.013
		z M35.645,22.017v-5.004c0-0.68,0.446-1.252,0.975-1.252h2.856c0.528,0,0.975,0.572,0.975,1.252v5.532
		c0,0.679-0.446,1.252-0.975,1.252H36.62c-0.528,0-0.975-0.573-0.975-1.252V22.017z M37.053,35.335c0.285,0,0.518-0.232,0.518-0.518
		v-8.949c0-0.285-0.232-0.518-0.518-0.518h-0.725v-0.518h0.291h2.856h0.291v10.834h-3.438v-0.332H37.053z M36.329,34.3v-7.913h0.206
		V34.3H36.329z M35.645,36.703h0.165h4.475h0.166v4.929h-4.806V36.703z M35.517,42.668h5.451h1.113l2.572,4.992h-3.167v-3.957
		c0-0.285-0.233-0.518-0.519-0.518h-2.92c-0.286,0-0.518,0.232-0.518,0.518v3.957h-3.456L35.517,42.668z M40.451,44.221v3.439
		h-1.885v-3.439H40.451z M44.986,48.965H33.905v-0.27h4.144h2.92h4.018V48.965z"/>
	<path class="st0" d="M39.443,37.095H37.89c-0.285,0-0.519,0.233-0.519,0.518v1.554c0,0.285,0.233,0.518,0.519,0.518h1.553
		c0.285,0,0.519-0.232,0.519-0.518v-1.554C39.961,37.328,39.728,37.095,39.443,37.095z"/>
	<path class="st0" d="M26.967,9.294c0,1.121,0.91,2.031,2.03,2.031c1.121,0,2.031-0.91,2.031-2.031s-0.91-2.033-2.031-2.033
		C27.877,7.261,26.967,8.174,26.967,9.294z M29.994,9.294c0,0.548-0.447,0.995-0.996,0.995c-0.548,0-0.994-0.447-0.994-0.995
		c0-0.55,0.446-0.997,0.994-0.997C29.546,8.297,29.994,8.744,29.994,9.294z"/>
	<path class="st0" d="M25.992,7.261h-6.011c-0.286,0-0.519,0.233-0.519,0.519v3.028c0,0.285,0.232,0.518,0.519,0.518h6.011
		c0.285,0,0.518-0.232,0.518-0.518V7.78C26.509,7.494,26.277,7.261,25.992,7.261z M25.474,10.29h-4.976V8.297h4.976V10.29z"/>
	<path class="st0" d="M25.992,2.904h-4.518c-0.285,0-0.519,0.233-0.519,0.518v2.981c0,0.285,0.233,0.518,0.519,0.518h4.518
		c0.285,0,0.518-0.232,0.518-0.518V3.422C26.509,3.137,26.277,2.904,25.992,2.904z M25.474,5.886h-3.482V3.94h3.482V5.886z"/>
	<path class="st0" d="M18.536,5.886h-2.937c-0.285,0-0.518,0.232-0.518,0.518V7.78c0,0.285,0.232,0.518,0.518,0.518h2.937
		c0.286,0,0.52-0.232,0.52-0.518V6.404C19.055,6.119,18.822,5.886,18.536,5.886z M18.018,7.261h-1.901v-0.34h1.901V7.261z"/>
	<path class="st0" d="M18.536,8.776h-2.937c-0.285,0-0.518,0.233-0.518,0.518v1.373c0,0.286,0.232,0.519,0.518,0.519h2.937
		c0.286,0,0.52-0.233,0.52-0.519V9.294C19.055,9.009,18.822,8.776,18.536,8.776z M18.018,10.15h-1.901V9.812h1.901V10.15z"/>
	<path class="st0" d="M21.474,24.849H24.5c0.285,0,0.518-0.232,0.518-0.518V19.78c0-0.285-0.232-0.518-0.518-0.518h-3.025
		c-0.285,0-0.519,0.232-0.519,0.518v4.551C20.956,24.617,21.189,24.849,21.474,24.849z M21.992,20.298h1.99v3.515h-1.99V20.298z"/>
	<path class="st0" d="M21.474,30.861H24.5c0.285,0,0.518-0.232,0.518-0.518v-4.551c0-0.286-0.232-0.518-0.518-0.518h-3.025
		c-0.285,0-0.519,0.232-0.519,0.518v4.551C20.956,30.628,21.189,30.861,21.474,30.861z M21.992,26.31h1.99v3.515h-1.99V26.31z"/>
	<path class="st0" d="M25.988,32.729h-3.025c-0.285,0-0.518,0.233-0.518,0.518v3.03c0,0.285,0.232,0.518,0.518,0.518h3.025
		c0.286,0,0.518-0.233,0.518-0.518v-3.03C26.505,32.962,26.274,32.729,25.988,32.729z M25.47,35.76h-1.99v-1.995h1.99V35.76z"/>
	<path class="st0" d="M21.474,32.729h-4.45c-0.285,0-0.518,0.233-0.518,0.518v3.03c0,0.285,0.232,0.518,0.518,0.518h4.45
		c0.285,0,0.518-0.233,0.518-0.518v-3.03C21.992,32.962,21.759,32.729,21.474,32.729z M20.956,35.76h-3.414v-1.995h3.414V35.76z"/>
	<path class="st0" d="M17.047,26.387h2.934c0.285,0,0.518-0.233,0.518-0.518s-0.232-0.518-0.518-0.518h-2.934
		c-0.285,0-0.518,0.232-0.518,0.518S16.762,26.387,17.047,26.387z"/>
	<path class="st0" d="M16.55,24.315c0,0.285,0.232,0.518,0.518,0.518h2.913c0.285,0,0.518-0.232,0.518-0.518V19.78
		c0-0.285-0.232-0.518-0.518-0.518h-2.913c-0.285,0-0.518,0.232-0.518,0.518v1.442c-0.002,0.018-0.021,0.03-0.021,0.048
		c0,0.019,0.019,0.03,0.021,0.048V24.315z M17.585,20.298h1.877v0.455h-1.877V20.298z M17.585,21.789h1.877v2.009h-1.877V21.789z"/>
	<path class="st0" d="M17.047,27.785h2.934c0.285,0,0.518-0.233,0.518-0.518c0-0.286-0.232-0.518-0.518-0.518h-2.934
		c-0.285,0-0.518,0.232-0.518,0.518C16.53,27.552,16.762,27.785,17.047,27.785z"/>
	<path class="st0" d="M17.047,29.182h2.934c0.285,0,0.518-0.233,0.518-0.518s-0.232-0.518-0.518-0.518h-2.934
		c-0.285,0-0.518,0.232-0.518,0.518S16.762,29.182,17.047,29.182z"/>
	<path class="st0" d="M17.047,30.58h2.934c0.285,0,0.518-0.232,0.518-0.518s-0.232-0.518-0.518-0.518h-2.934
		c-0.285,0-0.518,0.232-0.518,0.518S16.762,30.58,17.047,30.58z"/>
</g>
</svg>
