<?xml version="1.0" encoding="utf-8"?>
<!-- Generator: Adobe Illustrator 16.0.0, SVG Export Plug-In . SVG Version: 6.00 Build 0)  -->
<!DOCTYPE svg PUBLIC "-//W3C//DTD SVG 1.1//EN" "http://www.w3.org/Graphics/SVG/1.1/DTD/svg11.dtd">
<svg version="1.1" id="Layer_1" xmlns="http://www.w3.org/2000/svg" xmlns:xlink="http://www.w3.org/1999/xlink" x="0px" y="0px"
	 width="50px" height="54.882px" viewBox="0 0 50 54.882" style="enable-background:new 0 0 50 54.882;" xml:space="preserve">
<style type="text/css">
<![CDATA[
	.st0{fill:#2b363b; fill:#F7D050;}
]]>
</style>
<path class="st0" d="M20.008,3.688c-0.002-0.358-0.293-0.645-0.65-0.645c0,0-0.004,0-0.005,0c-1.023,0.008-9.996,0.355-9.996,9.931
	v5.652c0,1.112-0.443,2.214-1.108,3.523c-0.162,0.32-0.034,0.711,0.286,0.873c0.095,0.049,0.196,0.071,0.294,0.071
	c0.236,0,0.465-0.13,0.58-0.355c0.749-1.478,1.248-2.741,1.248-4.112v-5.652c0-8.321,7.816-8.624,8.707-8.631
	C19.722,4.34,20.01,4.046,20.008,3.688z"/>
<path class="st0" d="M42.522,18.621l-0.051-5.647c0-11.667-11.529-11.801-11.646-11.801h-3.532
	c-0.255-0.678-0.877-1.013-1.386-1.069h-1.96c-0.407,0-0.761,0.145-1.025,0.419c-0.193,0.2-0.293,0.434-0.359,0.65h-3.205
	c-0.119,0-11.875,0.134-11.875,11.801v5.652c0,1-0.687,2.29-1.636,4.079C3.661,26.817,0,33.704,0,46.65
	C0,47.008,0.291,47.3,0.65,47.3H2.6c0.356,0,0.646-0.287,0.65-0.643c0.001-0.129,0.174-12.866,3.567-16.428
	c0.269-0.282,0.565-0.513,0.846-0.774c0.147,0.878,0.409,2.229,0.877,4.152c0.001,0.102,0.026,0.201,0.072,0.29
	c0.091,0.185,1.645,3.394,1.79,6.646c-0.674,0.386-0.984,1.373-0.984,2.351c0,0.106,0.025,0.21,0.076,0.305
	c0.409,0.771,0.98,1.53,1.601,2.264c-0.613,0.587-1.758,2.062-1.758,4.92c0,3.835,11.923,4.414,15.582,4.5c0.006,0,0.013,0,0.019,0
	c0.015,0,0.032,0,0.047-0.002c3.728-0.089,15.522-0.684,15.522-4.498c0-2.704-1.019-4.155-1.647-4.801
	c0.662-0.771,1.267-1.571,1.698-2.383c0.051-0.095,0.076-0.198,0.076-0.305c0-0.978-0.31-1.965-0.985-2.351
	c0.13-2.889,1.379-5.76,1.747-6.572c0.045-0.066,0.078-0.14,0.096-0.218c0.003,0,0.003,0,0.003-0.003
	c0.475-1.965,0.741-3.354,0.891-4.257c0.267,0.251,0.549,0.467,0.805,0.736c3.392,3.559,3.564,16.299,3.566,16.428
	c0.006,0.355,0.295,0.643,0.65,0.643h1.944C49.708,47.3,50,47.008,50,46.65c0-12.946-3.657-19.833-5.843-23.945
	C43.207,20.916,42.522,19.626,42.522,18.621z M23.76,1.797c-0.004-0.076,0.028-0.3,0.188-0.394l1.886-0.005
	c0.067,0.008,0.287,0.061,0.287,0.427l0.113,21.766H23.76V1.797z M23.76,24.891h2.481l0.002,0.563H23.76V24.891z M5.875,27.592
	C2.132,31.523,1.956,44.36,1.95,44.903c0,0.051,0.042,0.081,0.052,0.13C1.984,45.406,1.971,45.746,1.964,46h-0.66
	c0.119-12.204,3.598-18.748,5.691-22.686c1.039-1.954,1.789-3.366,1.789-4.688v-5.652c0-10.357,10.144-10.502,10.575-10.502h3.102
	v20.676C18.148,20.477,10.929,22.279,5.875,27.592z M8.059,27.351c4.816-4.241,11.053-5.47,14.401-2.647v0.186
	C18.737,22.581,12.858,23.599,8.059,27.351z M10.723,42.738c0.014-0.218,0.053-0.427,0.101-0.604c0.263,0.595,0.66,1.447,1.16,2.392
	C11.495,43.941,11.058,43.34,10.723,42.738z M21.886,47.889v-2.188c0-0.023-0.023-0.038-0.024-0.062l0.613-0.857v3.106H21.886z
	 M22.475,49.188v0.543h-0.589v-0.543H22.475z M22.419,42.375c-1.241,0.449-3.504,1.392-4.786,2.582
	c-0.503-1.919-1.24-3.597-2.065-5.054l1.594,0.767c0.291,0.137,0.64,0.045,0.82-0.221c0.061-0.089,1.473-2.098,4.437-0.876V42.375z
	 M20.254,47.889l0.333-0.465v0.465H20.254z M20.586,49.188v0.543h-1.65l0.389-0.543H20.586z M18.24,48.47
	c-0.056-0.645-0.142-1.267-0.249-1.87c0.074-0.602,1.521-1.544,3.259-2.338L18.24,48.47z M16.982,49.09
	c-0.152-0.112-0.329-0.249-0.504-0.384c-2.5-2.409-4.493-7.141-4.774-7.833c-0.023-1.851-0.472-3.687-0.93-5.067
	C13.051,38.05,16.566,42.527,16.982,49.09z M39.207,50.382c0,1.767-7.409,3.035-14.285,3.2c-6.876-0.165-14.286-1.434-14.286-3.2
	c0-2.407,0.905-3.549,1.322-3.952c1.296,1.355,2.696,2.521,3.757,3.33c0.506,0.472,1.033,0.87,1.579,1.149
	c0.002,0.003,0.017,0.013,0.017,0.013c0.003,0.003,0.006,0,0.007,0.003c0.004,0,0.006,0.002,0.01,0.005
	c0.005,0.003,0.01,0.005,0.015,0.008c0.015,0.01,0.03,0.021,0.046,0.027c0.091,0.046,0.188,0.066,0.283,0.066h14.707
	c0.097,0,0.192-0.021,0.284-0.066c0.016-0.007,0.03-0.02,0.048-0.027c0.003-0.003,0.008-0.005,0.013-0.008
	c0.003-0.003,0.008-0.005,0.011-0.008c0.002,0,0.002,0,0.005,0l0.01-0.008c0.554-0.278,1.084-0.683,1.595-1.159
	c1.033-0.787,2.378-1.912,3.643-3.217C38.438,47.023,39.207,48.165,39.207,50.382z M25.658,47.889v-4.95
	c0.197,0.084,0.394,0.203,0.589,0.384v4.566H25.658z M26.247,49.188v0.543h-0.589v-0.543H26.247z M23.719,41.735v-2.579
	c0.001-0.195,0.069-1.167,1.219-1.167c1.164,0,1.296,1.01,1.31,1.17v2.622C25.347,41.365,24.444,41.456,23.719,41.735z
	 M23.775,47.889v-4.752c0.151-0.089,0.352-0.183,0.584-0.256v5.008H23.775z M24.359,49.188v0.543h-0.584v-0.543H24.359z
	 M32.417,44.962c-1.303-1.195-3.609-2.14-4.87-2.589v-2.805c2.743-1.16,4.131,0.819,4.283,1.056
	c0.184,0.281,0.554,0.381,0.846,0.229l1.792-0.924C33.647,41.383,32.914,43.051,32.417,44.962z M39.275,35.813
	c-0.462,1.398-0.906,3.224-0.929,5.066c-0.292,0.711-2.277,5.423-4.772,7.826c-0.175,0.135-0.353,0.27-0.505,0.384
	C33.485,42.546,36.999,38.063,39.275,35.813z M30.506,49.188c0.058,0,0.094-0.048,0.146-0.061l0.444,0.604h-1.665v-0.543H30.506z
	 M29.432,47.889V47.46l0.314,0.429H29.432z M28.677,44.23c1.796,0.8,3.306,1.76,3.382,2.369c-0.108,0.616-0.192,1.251-0.248,1.906
	L28.677,44.23z M28.136,45.69c-0.001,0.003-0.005,0.005-0.005,0.011v2.188h-0.584v-3.003L28.136,45.69z M28.131,49.188v0.543h-0.584
	v-0.543H28.131z M38.069,44.522c0.501-0.944,0.896-1.794,1.158-2.391c0.048,0.18,0.089,0.389,0.102,0.606
	C38.994,43.338,38.558,43.937,38.069,44.522z M40.309,33.194c-0.619,0.449-2.556,1.978-4.435,4.549l-3.313,1.705
	c-0.903-1.015-2.744-2.071-5.219-1.178c-0.308-0.769-1.008-1.581-2.405-1.581c-1.332,0-2.04,0.779-2.338,1.584
	c-2.785-0.995-4.585,0.281-5.317,1.01l-3.051-1.464c-1.875-2.59-3.822-4.138-4.468-4.61c-0.632-2.645-0.866-4.178-0.944-4.805
	c4.792-3.79,10.724-4.704,13.85-1.823c0.064,0.059,0.15,0.057,0.226,0.084c0.073,0.028,0.13,0.089,0.214,0.089h0.025h0.004h3.731
	c0,0,0.002,0,0.003,0h0.024c0.079,0,0.141-0.061,0.214-0.089c0.076-0.027,0.163-0.025,0.227-0.084
	c3.127-2.881,9.084-1.957,13.89,1.858C41.146,29.09,40.915,30.62,40.309,33.194z M27.541,24.891l-0.002-0.183
	c3.342-2.83,9.584-1.597,14.409,2.646C37.144,23.597,31.26,22.581,27.541,24.891z M48.043,46c-0.008-0.254-0.021-0.594-0.038-0.97
	c0.011-0.048,0.051-0.078,0.051-0.127c-0.005-0.543-0.183-13.38-3.927-17.314c-5.062-5.31-12.293-7.109-16.598-4.429L27.424,2.472
	h3.401c0.421,0,10.347,0.12,10.347,10.507l0.051,5.647c0,1.322,0.749,2.734,1.787,4.688c2.092,3.938,5.569,10.481,5.688,22.686
	H48.043z"/>
<path class="st0" d="M23.61,27.798c-0.051-0.069-0.108-0.109-0.182-0.155c-0.044-0.028-0.062-0.081-0.114-0.099
	c-0.242-0.082-5.96-1.935-9.869,0.035c-1.148,0.581-1.809,1.384-1.961,2.384c-0.311,2.051,1.754,4.076,1.843,4.163
	c0.06,0.058,0.131,0.104,0.208,0.134c1.676,0.681,3.205,0.904,4.493,0.904c0.702,0,1.306-0.074,1.851-0.17
	c-0.633,0.467-1.341,0.761-2.206,0.761h-2.071c-0.359,0-0.65,0.292-0.65,0.65c0,0.357,0.291,0.649,0.65,0.649h2.071
	c1.425,0,2.643-0.495,3.615-1.475c0.461-0.462,0.813-1.016,1.117-1.592c0.014-0.03,0.034-0.051,0.043-0.081
	c1.287-2.498,1.313-5.587,1.313-5.749c0-0.057-0.046-0.089-0.059-0.14C23.681,27.935,23.661,27.868,23.61,27.798z M21.329,33.25
	c-0.744,0.307-3.57,1.271-7.185-0.145c-0.509-0.531-1.541-1.866-1.375-2.95c0.086-0.568,0.5-1.03,1.262-1.414
	c2.859-1.444,7.064-0.469,8.41-0.099C22.393,29.539,22.176,31.562,21.329,33.25z"/>
<path class="st0" d="M26.692,27.544c-0.052,0.018-0.069,0.07-0.114,0.099c-0.073,0.046-0.13,0.086-0.181,0.155
	c-0.051,0.07-0.071,0.137-0.091,0.221c-0.013,0.051-0.059,0.083-0.059,0.14c-0.001,0.162,0.025,3.254,1.313,5.752
	c0.007,0.025,0.025,0.043,0.037,0.068c0.306,0.581,0.658,1.14,1.122,1.604c0.972,0.977,2.188,1.472,3.614,1.472h2.081
	c0.358,0,0.65-0.292,0.65-0.649c0-0.358-0.292-0.65-0.65-0.65h-2.081c-0.865,0-1.571-0.294-2.203-0.759
	c0.543,0.094,1.145,0.168,1.845,0.168c1.287,0,2.818-0.224,4.496-0.904c0.078-0.03,0.147-0.076,0.208-0.134
	c0.089-0.087,2.15-2.112,1.838-4.161c-0.152-1.002-0.813-1.805-1.962-2.383C32.655,25.606,26.934,27.46,26.692,27.544z
	 M35.971,28.741c0.762,0.384,1.175,0.849,1.262,1.417c0.167,1.084-0.863,2.416-1.371,2.947c-3.622,1.416-6.442,0.454-7.183,0.145
	c-0.848-1.686-1.064-3.714-1.112-4.607C28.909,28.27,33.103,27.287,35.971,28.741z"/>
</svg>
